<svg xmlns="http://www.w3.org/2000/svg" xmlns:xlink="http://www.w3.org/1999/xlink" width="1400" zoomAndPan="magnify" viewBox="0 0 1050 675.000002" height="900" preserveAspectRatio="xMidYMid meet" version="1.0"><defs><g/></defs><g fill="#efecec" fill-opacity="1"><g transform="translate(17.537802, 508.178712)"><g><path d="M 194.59375 4.796875 C 169.351562 4.796875 146.109375 0.484375 124.859375 -8.140625 C 103.609375 -16.773438 85.234375 -28.835938 69.734375 -44.328125 C 54.234375 -59.828125 42.171875 -78.203125 33.546875 -99.453125 C 24.921875 -120.703125 20.609375 -143.945312 20.609375 -169.1875 C 20.609375 -194.113281 24.921875 -217.203125 33.546875 -238.453125 C 42.171875 -259.703125 54.234375 -278.15625 69.734375 -293.8125 C 85.234375 -309.46875 103.609375 -321.609375 124.859375 -330.234375 C 146.109375 -338.859375 169.351562 -343.171875 194.59375 -343.171875 C 219.519531 -343.171875 242.523438 -338.859375 263.609375 -330.234375 C 284.703125 -321.609375 302.992188 -309.46875 318.484375 -293.8125 C 333.984375 -278.15625 346.046875 -259.703125 354.671875 -238.453125 C 363.304688 -217.203125 367.625 -193.957031 367.625 -168.71875 C 367.625 -143.789062 363.304688 -120.78125 354.671875 -99.6875 C 346.046875 -78.601562 333.984375 -60.234375 318.484375 -44.578125 C 302.992188 -28.921875 284.703125 -16.773438 263.609375 -8.140625 C 242.523438 0.484375 219.519531 4.796875 194.59375 4.796875 Z M 194.59375 -72.375 C 207.695312 -72.375 219.679688 -74.769531 230.546875 -79.5625 C 241.410156 -84.351562 250.914062 -91.0625 259.0625 -99.6875 C 267.207031 -108.320312 273.515625 -118.550781 277.984375 -130.375 C 282.460938 -142.195312 284.703125 -154.976562 284.703125 -168.71875 C 284.703125 -182.769531 282.460938 -195.707031 277.984375 -207.53125 C 273.515625 -219.351562 267.207031 -229.65625 259.0625 -238.4375 C 250.914062 -247.226562 241.410156 -254.019531 230.546875 -258.8125 C 219.679688 -263.613281 207.695312 -266.015625 194.59375 -266.015625 C 181.488281 -266.015625 169.425781 -263.613281 158.40625 -258.8125 C 147.382812 -254.019531 137.796875 -247.226562 129.640625 -238.4375 C 121.492188 -229.65625 115.179688 -219.351562 110.703125 -207.53125 C 106.234375 -195.707031 104 -182.769531 104 -168.71875 C 104 -150.175781 107.914062 -133.632812 115.75 -119.09375 C 123.582031 -104.5625 134.285156 -93.140625 147.859375 -84.828125 C 161.441406 -76.523438 177.019531 -72.375 194.59375 -72.375 Z M 194.59375 -72.375 "/></g></g></g><g fill="#efecec" fill-opacity="1"><g transform="translate(405.770004, 508.178712)"><g><path d="M 41.703125 0 L 41.703125 -335.515625 L 123.65625 -335.515625 L 123.65625 -72.375 L 273.203125 -72.375 L 273.203125 0 Z M 41.703125 0 "/></g></g></g><g fill="#efecec" fill-opacity="1"><g transform="translate(698.142441, 508.178712)"><g><path d="M 0 0 L 132.765625 -335.515625 L 202.265625 -335.515625 L 334.0625 0 L 251.625 0 L 187.890625 -170.15625 C 185.648438 -176.863281 183.171875 -184.050781 180.453125 -191.71875 C 177.734375 -199.382812 175.097656 -207.367188 172.546875 -215.671875 C 169.992188 -223.984375 167.597656 -231.972656 165.359375 -239.640625 C 163.117188 -247.316406 161.203125 -254.507812 159.609375 -261.21875 L 173.5 -261.703125 C 171.582031 -253.710938 169.503906 -245.878906 167.265625 -238.203125 C 165.035156 -230.535156 162.640625 -222.867188 160.078125 -215.203125 C 157.523438 -207.535156 154.890625 -199.945312 152.171875 -192.4375 C 149.460938 -184.925781 146.671875 -177.175781 143.796875 -169.1875 L 80.515625 0 Z M 63.265625 -64.21875 L 89.15625 -126.53125 L 242.53125 -126.53125 L 268.40625 -64.21875 Z M 125.109375 -358.515625 L 107.375 -396.859375 L 207.546875 -452.453125 L 233.90625 -395.90625 Z M 125.109375 -358.515625 "/></g></g></g></svg>