<svg xmlns="http://www.w3.org/2000/svg" xmlns:xlink="http://www.w3.org/1999/xlink" width="1200" zoomAndPan="magnify" viewBox="0 0 900 472.499986" height="630" preserveAspectRatio="xMidYMid meet" version="1.0"><defs><g/></defs><g fill="#ffffff" fill-opacity="1"><g transform="translate(23.748492, 288.745875)"><g><path d="M 29.46875 0 L 0.6875 -95.5 L 24.421875 -95.5 L 38.875 -45.296875 C 39.695312 -42.378906 40.378906 -39.394531 40.921875 -36.34375 C 41.472656 -33.300781 41.929688 -30.484375 42.296875 -27.890625 C 42.660156 -25.304688 42.882812 -23.285156 42.96875 -21.828125 L 39.828125 -21.6875 C 40.472656 -25.144531 40.972656 -28.191406 41.328125 -30.828125 C 41.691406 -33.460938 42.144531 -35.941406 42.6875 -38.265625 C 43.238281 -40.585938 43.925781 -42.929688 44.75 -45.296875 L 59.078125 -83.078125 L 77.765625 -83.078125 L 91.8125 -45.296875 C 92.90625 -42.296875 93.789062 -39.453125 94.46875 -36.765625 C 95.15625 -34.078125 95.703125 -31.570312 96.109375 -29.25 C 96.515625 -26.9375 96.851562 -24.644531 97.125 -22.375 L 94.265625 -21.828125 C 94.453125 -23.554688 94.613281 -25.101562 94.75 -26.46875 C 94.882812 -27.832031 94.992188 -29.171875 95.078125 -30.484375 C 95.171875 -31.804688 95.304688 -33.171875 95.484375 -34.578125 C 95.671875 -35.992188 95.945312 -37.585938 96.3125 -39.359375 C 96.675781 -41.128906 97.175781 -43.148438 97.8125 -45.421875 L 112 -95.5 L 135.328125 -95.5 L 106.546875 0 L 88.8125 0 L 66.03125 -54.84375 L 68.625 -54.5625 L 47.75 0 Z M 29.46875 0 "/></g></g></g><g fill="#ffffff" fill-opacity="1"><g transform="translate(159.88565, 288.745875)"><g><path d="M 10.90625 0 L 10.90625 -72.4375 L 32.875 -72.4375 L 32.875 0 Z M 21.96875 -86.765625 C 17.78125 -86.765625 14.523438 -87.738281 12.203125 -89.6875 C 9.890625 -91.644531 8.734375 -94.445312 8.734375 -98.09375 C 8.734375 -101.457031 9.914062 -104.179688 12.28125 -106.265625 C 14.644531 -108.359375 17.875 -109.40625 21.96875 -109.40625 C 25.96875 -109.40625 29.125 -108.425781 31.4375 -106.46875 C 33.757812 -104.519531 34.921875 -101.726562 34.921875 -98.09375 C 34.921875 -94.726562 33.757812 -92 31.4375 -89.90625 C 29.125 -87.8125 25.96875 -86.765625 21.96875 -86.765625 Z M 21.96875 -86.765625 "/></g></g></g><g fill="#ffffff" fill-opacity="1"><g transform="translate(203.673261, 288.745875)"><g><path d="M 9.6875 0 L 9.6875 -100.953125 L 31.65625 -100.953125 L 31.65625 0 Z M 9.6875 0 "/></g></g></g><g fill="#ffffff" fill-opacity="1"><g transform="translate(245.141897, 288.745875)"><g><path d="M 9.6875 0 L 9.6875 -100.953125 L 31.65625 -100.953125 L 31.65625 0 Z M 9.6875 0 "/></g></g></g><g fill="#ffffff" fill-opacity="1"><g transform="translate(286.610533, 288.745875)"><g><path d="M 10.90625 0 L 10.90625 -72.4375 L 32.875 -72.4375 L 32.875 0 Z M 21.96875 -86.765625 C 17.78125 -86.765625 14.523438 -87.738281 12.203125 -89.6875 C 9.890625 -91.644531 8.734375 -94.445312 8.734375 -98.09375 C 8.734375 -101.457031 9.914062 -104.179688 12.28125 -106.265625 C 14.644531 -108.359375 17.875 -109.40625 21.96875 -109.40625 C 25.96875 -109.40625 29.125 -108.425781 31.4375 -106.46875 C 33.757812 -104.519531 34.921875 -101.726562 34.921875 -98.09375 C 34.921875 -94.726562 33.757812 -92 31.4375 -89.90625 C 29.125 -87.8125 25.96875 -86.765625 21.96875 -86.765625 Z M 21.96875 -86.765625 "/></g></g></g><g fill="#ffffff" fill-opacity="1"><g transform="translate(330.398144, 288.745875)"><g><path d="M 48.296875 0 L 48.296875 -44.46875 C 48.296875 -48.195312 47.269531 -50.945312 45.21875 -52.71875 C 43.175781 -54.5 40.335938 -55.390625 36.703125 -55.390625 C 33.148438 -55.390625 29.988281 -54.726562 27.21875 -53.40625 C 24.445312 -52.09375 21.785156 -49.929688 19.234375 -46.921875 L 6.140625 -59.609375 C 10.503906 -64.066406 15.503906 -67.566406 21.140625 -70.109375 C 26.785156 -72.660156 32.925781 -73.9375 39.5625 -73.9375 C 45.65625 -73.9375 50.929688 -73.023438 55.390625 -71.203125 C 59.847656 -69.390625 63.300781 -66.617188 65.75 -62.890625 C 68.207031 -59.160156 69.4375 -54.429688 69.4375 -48.703125 L 69.4375 0 Z M 29.46875 1.359375 C 24.914062 1.359375 20.796875 0.453125 17.109375 -1.359375 C 13.429688 -3.179688 10.523438 -5.707031 8.390625 -8.9375 C 6.253906 -12.164062 5.1875 -15.960938 5.1875 -20.328125 C 5.1875 -24.054688 5.867188 -27.328125 7.234375 -30.140625 C 8.597656 -32.960938 10.617188 -35.304688 13.296875 -37.171875 C 15.984375 -39.035156 19.347656 -40.445312 23.390625 -41.40625 C 27.441406 -42.363281 32.148438 -42.84375 37.515625 -42.84375 L 59.484375 -42.84375 L 58.25 -29.0625 L 38.0625 -29.0625 C 36.15625 -29.0625 34.472656 -28.898438 33.015625 -28.578125 C 31.554688 -28.265625 30.328125 -27.765625 29.328125 -27.078125 C 28.328125 -26.398438 27.578125 -25.601562 27.078125 -24.6875 C 26.578125 -23.78125 26.328125 -22.691406 26.328125 -21.421875 C 26.328125 -20.054688 26.691406 -18.875 27.421875 -17.875 C 28.148438 -16.875 29.128906 -16.097656 30.359375 -15.546875 C 31.585938 -15.003906 33.019531 -14.734375 34.65625 -14.734375 C 37.019531 -14.734375 39.269531 -15.117188 41.40625 -15.890625 C 43.539062 -16.660156 45.445312 -17.773438 47.125 -19.234375 C 48.8125 -20.691406 50.15625 -22.375 51.15625 -24.28125 L 54.984375 -14.453125 C 53.066406 -11.367188 50.765625 -8.644531 48.078125 -6.28125 C 45.398438 -3.914062 42.492188 -2.050781 39.359375 -0.6875 C 36.222656 0.675781 32.925781 1.359375 29.46875 1.359375 Z M 29.46875 1.359375 "/></g></g></g><g fill="#ffffff" fill-opacity="1"><g transform="translate(407.606187, 288.745875)"><g><path d="M 9.546875 0 L 9.546875 -72.4375 L 30.421875 -72.4375 L 31.109375 -59.34375 L 28.109375 -59.078125 C 29.109375 -61.441406 30.46875 -63.53125 32.1875 -65.34375 C 33.914062 -67.164062 35.847656 -68.691406 37.984375 -69.921875 C 40.128906 -71.148438 42.382812 -72.101562 44.75 -72.78125 C 47.113281 -73.457031 49.476562 -73.796875 51.84375 -73.796875 C 55.476562 -73.796875 58.726562 -73.25 61.59375 -72.15625 C 64.457031 -71.070312 66.957031 -69.300781 69.09375 -66.84375 C 71.226562 -64.382812 72.9375 -61.113281 74.21875 -57.03125 L 70.9375 -57.5625 L 71.890625 -59.484375 C 73.160156 -61.660156 74.726562 -63.632812 76.59375 -65.40625 C 78.457031 -67.1875 80.523438 -68.710938 82.796875 -69.984375 C 85.078125 -71.253906 87.421875 -72.207031 89.828125 -72.84375 C 92.242188 -73.476562 94.585938 -73.796875 96.859375 -73.796875 C 102.585938 -73.796875 107.359375 -72.660156 111.171875 -70.390625 C 114.992188 -68.117188 117.859375 -64.773438 119.765625 -60.359375 C 121.679688 -55.953125 122.640625 -50.519531 122.640625 -44.0625 L 122.640625 0 L 100.671875 0 L 100.671875 -42.421875 C 100.671875 -46.703125 99.785156 -49.910156 98.015625 -52.046875 C 96.242188 -54.179688 93.582031 -55.25 90.03125 -55.25 C 88.125 -55.25 86.375 -54.953125 84.78125 -54.359375 C 83.195312 -53.773438 81.832031 -52.910156 80.6875 -51.765625 C 79.550781 -50.628906 78.664062 -49.332031 78.03125 -47.875 C 77.394531 -46.425781 77.078125 -44.789062 77.078125 -42.96875 L 77.078125 0 L 55.109375 0 L 55.109375 -42.5625 C 55.109375 -46.65625 54.175781 -49.789062 52.3125 -51.96875 C 50.445312 -54.15625 47.832031 -55.25 44.46875 -55.25 C 42.65625 -55.25 40.953125 -54.953125 39.359375 -54.359375 C 37.765625 -53.773438 36.398438 -52.910156 35.265625 -51.765625 C 34.128906 -50.628906 33.242188 -49.332031 32.609375 -47.875 C 31.972656 -46.425781 31.65625 -44.789062 31.65625 -42.96875 L 31.65625 0 Z M 9.546875 0 "/></g></g></g><g fill="#ffffff" fill-opacity="1"><g transform="translate(538.832604, 288.745875)"><g/></g></g><g fill="#ffffff" fill-opacity="1"><g transform="translate(582.347386, 288.745875)"><g><path d="M 11.875 0 L 11.875 -95.5 L 52.109375 -95.5 C 59.117188 -95.5 65.53125 -94.335938 71.34375 -92.015625 C 77.164062 -89.691406 82.164062 -86.414062 86.34375 -82.1875 C 90.53125 -77.957031 93.757812 -72.910156 96.03125 -67.046875 C 98.3125 -61.179688 99.453125 -54.75 99.453125 -47.75 C 99.453125 -40.65625 98.3125 -34.195312 96.03125 -28.375 C 93.757812 -22.550781 90.53125 -17.523438 86.34375 -13.296875 C 82.164062 -9.066406 77.1875 -5.789062 71.40625 -3.46875 C 65.632812 -1.15625 59.203125 0 52.109375 0 Z M 35.203125 -16.09375 L 32.203125 -20.59375 L 51.4375 -20.59375 C 55.164062 -20.59375 58.53125 -21.226562 61.53125 -22.5 C 64.53125 -23.78125 67.097656 -25.625 69.234375 -28.03125 C 71.367188 -30.445312 73.003906 -33.3125 74.140625 -36.625 C 75.273438 -39.945312 75.84375 -43.65625 75.84375 -47.75 C 75.84375 -51.84375 75.273438 -55.546875 74.140625 -58.859375 C 73.003906 -62.179688 71.367188 -65.046875 69.234375 -67.453125 C 67.097656 -69.867188 64.53125 -71.710938 61.53125 -72.984375 C 58.53125 -74.253906 55.164062 -74.890625 51.4375 -74.890625 L 31.78125 -74.890625 L 35.203125 -79.125 Z M 35.203125 -16.09375 "/></g></g></g><g fill="#ffffff" fill-opacity="1"><g transform="translate(687.655874, 288.745875)"><g><path d="M 10.90625 0 L 10.90625 -72.4375 L 32.875 -72.4375 L 32.875 0 Z M 21.96875 -86.765625 C 17.78125 -86.765625 14.523438 -87.738281 12.203125 -89.6875 C 9.890625 -91.644531 8.734375 -94.445312 8.734375 -98.09375 C 8.734375 -101.457031 9.914062 -104.179688 12.28125 -106.265625 C 14.644531 -108.359375 17.875 -109.40625 21.96875 -109.40625 C 25.96875 -109.40625 29.125 -108.425781 31.4375 -106.46875 C 33.757812 -104.519531 34.921875 -101.726562 34.921875 -98.09375 C 34.921875 -94.726562 33.757812 -92 31.4375 -89.90625 C 29.125 -87.8125 25.96875 -86.765625 21.96875 -86.765625 Z M 21.96875 -86.765625 "/></g></g></g><g fill="#ffffff" fill-opacity="1"><g transform="translate(731.443524, 288.745875)"><g><path d="M 48.296875 0 L 48.296875 -44.46875 C 48.296875 -48.195312 47.269531 -50.945312 45.21875 -52.71875 C 43.175781 -54.5 40.335938 -55.390625 36.703125 -55.390625 C 33.148438 -55.390625 29.988281 -54.726562 27.21875 -53.40625 C 24.445312 -52.09375 21.785156 -49.929688 19.234375 -46.921875 L 6.140625 -59.609375 C 10.503906 -64.066406 15.503906 -67.566406 21.140625 -70.109375 C 26.785156 -72.660156 32.925781 -73.9375 39.5625 -73.9375 C 45.65625 -73.9375 50.929688 -73.023438 55.390625 -71.203125 C 59.847656 -69.390625 63.300781 -66.617188 65.75 -62.890625 C 68.207031 -59.160156 69.4375 -54.429688 69.4375 -48.703125 L 69.4375 0 Z M 29.46875 1.359375 C 24.914062 1.359375 20.796875 0.453125 17.109375 -1.359375 C 13.429688 -3.179688 10.523438 -5.707031 8.390625 -8.9375 C 6.253906 -12.164062 5.1875 -15.960938 5.1875 -20.328125 C 5.1875 -24.054688 5.867188 -27.328125 7.234375 -30.140625 C 8.597656 -32.960938 10.617188 -35.304688 13.296875 -37.171875 C 15.984375 -39.035156 19.347656 -40.445312 23.390625 -41.40625 C 27.441406 -42.363281 32.148438 -42.84375 37.515625 -42.84375 L 59.484375 -42.84375 L 58.25 -29.0625 L 38.0625 -29.0625 C 36.15625 -29.0625 34.472656 -28.898438 33.015625 -28.578125 C 31.554688 -28.265625 30.328125 -27.765625 29.328125 -27.078125 C 28.328125 -26.398438 27.578125 -25.601562 27.078125 -24.6875 C 26.578125 -23.78125 26.328125 -22.691406 26.328125 -21.421875 C 26.328125 -20.054688 26.691406 -18.875 27.421875 -17.875 C 28.148438 -16.875 29.128906 -16.097656 30.359375 -15.546875 C 31.585938 -15.003906 33.019531 -14.734375 34.65625 -14.734375 C 37.019531 -14.734375 39.269531 -15.117188 41.40625 -15.890625 C 43.539062 -16.660156 45.445312 -17.773438 47.125 -19.234375 C 48.8125 -20.691406 50.15625 -22.375 51.15625 -24.28125 L 54.984375 -14.453125 C 53.066406 -11.367188 50.765625 -8.644531 48.078125 -6.28125 C 45.398438 -3.914062 42.492188 -2.050781 39.359375 -0.6875 C 36.222656 0.675781 32.925781 1.359375 29.46875 1.359375 Z M 29.46875 1.359375 "/></g></g></g><g fill="#ffffff" fill-opacity="1"><g transform="translate(808.651607, 288.745875)"><g><path d="M 34.109375 1.359375 C 27.191406 1.359375 21.003906 0.242188 15.546875 -1.984375 C 10.085938 -4.210938 5.722656 -7.28125 2.453125 -11.1875 L 15.828125 -22.640625 C 18.640625 -19.828125 21.816406 -17.757812 25.359375 -16.4375 C 28.910156 -15.113281 32.28125 -14.453125 35.46875 -14.453125 C 36.65625 -14.453125 37.703125 -14.585938 38.609375 -14.859375 C 39.515625 -15.140625 40.304688 -15.53125 40.984375 -16.03125 C 41.671875 -16.53125 42.195312 -17.117188 42.5625 -17.796875 C 42.925781 -18.484375 43.109375 -19.28125 43.109375 -20.1875 C 43.109375 -22.007812 42.335938 -23.375 40.796875 -24.28125 C 40.066406 -24.738281 38.742188 -25.304688 36.828125 -25.984375 C 34.921875 -26.671875 32.46875 -27.378906 29.46875 -28.109375 C 25.195312 -29.191406 21.488281 -30.503906 18.34375 -32.046875 C 15.207031 -33.597656 12.640625 -35.375 10.640625 -37.375 C 8.816406 -39.195312 7.425781 -41.289062 6.46875 -43.65625 C 5.519531 -46.019531 5.046875 -48.65625 5.046875 -51.5625 C 5.046875 -56.019531 6.382812 -59.929688 9.0625 -63.296875 C 11.75 -66.660156 15.273438 -69.273438 19.640625 -71.140625 C 24.003906 -73.003906 28.734375 -73.9375 33.828125 -73.9375 C 37.828125 -73.9375 41.625 -73.484375 45.21875 -72.578125 C 48.8125 -71.671875 52.175781 -70.394531 55.3125 -68.75 C 58.457031 -67.113281 61.253906 -65.160156 63.703125 -62.890625 L 52.109375 -49.9375 C 50.566406 -51.476562 48.75 -52.863281 46.65625 -54.09375 C 44.5625 -55.320312 42.46875 -56.320312 40.375 -57.09375 C 38.289062 -57.863281 36.335938 -58.25 34.515625 -58.25 C 33.148438 -58.25 31.941406 -58.132812 30.890625 -57.90625 C 29.847656 -57.675781 28.984375 -57.3125 28.296875 -56.8125 C 27.617188 -56.3125 27.097656 -55.71875 26.734375 -55.03125 C 26.367188 -54.351562 26.1875 -53.609375 26.1875 -52.796875 C 26.1875 -51.796875 26.4375 -50.90625 26.9375 -50.125 C 27.4375 -49.351562 28.144531 -48.648438 29.0625 -48.015625 C 29.875 -47.566406 31.300781 -46.976562 33.34375 -46.25 C 35.394531 -45.519531 38.101562 -44.703125 41.46875 -43.796875 C 45.75 -42.609375 49.410156 -41.265625 52.453125 -39.765625 C 55.503906 -38.265625 57.9375 -36.515625 59.75 -34.515625 C 61.300781 -32.972656 62.414062 -31.175781 63.09375 -29.125 C 63.78125 -27.082031 64.125 -24.878906 64.125 -22.515625 C 64.125 -17.867188 62.828125 -13.75 60.234375 -10.15625 C 57.640625 -6.570312 54.09375 -3.753906 49.59375 -1.703125 C 45.09375 0.335938 39.929688 1.359375 34.109375 1.359375 Z M 34.109375 1.359375 "/></g></g></g></svg>