<svg width="44" height="44" viewBox="0 0 44 44" fill="none" xmlns="http://www.w3.org/2000/svg">
<rect width="44" height="44" rx="22" fill="white" fill-opacity="0.2"/>
<path d="M18.5 24.5C19.163 24.5 19.7989 24.2366 20.2678 23.7678C20.7366 23.2989 21 22.663 21 22C21 20.62 20.5 20 20 19C18.928 16.857 19.776 14.946 22 13C22.5 15.5 24 17.9 26 19.5C28 21.1 29 23 29 25C29 25.9193 28.8189 26.8295 28.4672 27.6788C28.1154 28.5281 27.5998 29.2997 26.9497 29.9497C26.2997 30.5998 25.5281 31.1154 24.6788 31.4672C23.8295 31.8189 22.9193 32 22 32C21.0807 32 20.1705 31.8189 19.3212 31.4672C18.4719 31.1154 17.7003 30.5998 17.0503 29.9497C16.4002 29.2997 15.8846 28.5281 15.5328 27.6788C15.1811 26.8295 15 25.9193 15 25C15 23.847 15.433 22.706 16 22C16 22.663 16.2634 23.2989 16.7322 23.7678C17.2011 24.2366 17.837 24.5 18.5 24.5Z" stroke="white" stroke-width="1.5" stroke-linecap="round" stroke-linejoin="round"/>
</svg>
