<svg width="44" height="44" viewBox="0 0 44 44" fill="none" xmlns="http://www.w3.org/2000/svg">
<rect width="44" height="44" rx="22" fill="white" fill-opacity="0.2"/>
<path d="M14.9994 31H28.9994M21.5614 13.266C21.6046 13.1876 21.668 13.1222 21.7451 13.0767C21.8221 13.0312 21.91 13.0071 21.9994 13.0071C22.0889 13.0071 22.1768 13.0312 22.2538 13.0767C22.3309 13.1222 22.3943 13.1876 22.4374 13.266L25.3894 18.87C25.4598 18.9997 25.5581 19.1123 25.6772 19.1996C25.7962 19.2869 25.9331 19.3467 26.078 19.3748C26.223 19.403 26.3723 19.3986 26.5154 19.3622C26.6584 19.3257 26.7916 19.258 26.9054 19.164L31.1824 15.5C31.2646 15.4332 31.3657 15.3942 31.4714 15.3886C31.5771 15.383 31.6818 15.411 31.7705 15.4687C31.8593 15.5264 31.9274 15.6108 31.9651 15.7097C32.0028 15.8086 32.0082 15.9169 31.9804 16.019L29.1464 26.265C29.0886 26.4747 28.964 26.6597 28.7915 26.7922C28.6189 26.9247 28.4079 26.9973 28.1904 26.999H15.8094C15.5918 26.9975 15.3806 26.925 15.2078 26.7925C15.0351 26.66 14.9103 26.4748 14.8524 26.265L12.0194 16.02C11.9917 15.9179 11.9971 15.8096 12.0348 15.7107C12.0725 15.6118 12.1406 15.5274 12.2293 15.4697C12.3181 15.412 12.4228 15.384 12.5285 15.3896C12.6342 15.3952 12.7353 15.4342 12.8174 15.501L17.0934 19.165C17.2072 19.259 17.3405 19.3267 17.4835 19.3632C17.6266 19.3996 17.7759 19.404 17.9208 19.3758C18.0658 19.3477 18.2027 19.2879 18.3217 19.2006C18.4408 19.1133 18.5391 19.0007 18.6094 18.871L21.5614 13.266Z" stroke="white" stroke-width="1.5" stroke-linecap="round" stroke-linejoin="round"/>
</svg>
